<?xml version="1.0" encoding="utf-8"?>
<!-- Generator: Adobe Illustrator 26.0.2, SVG Export Plug-In . SVG Version: 6.00 Build 0)  -->
<svg version="1.1" id="Layer_1" xmlns="http://www.w3.org/2000/svg" xmlns:xlink="http://www.w3.org/1999/xlink" x="0px" y="0px"
	 viewBox="0 0 128 128" style="enable-background:new 0 0 128 128;" xml:space="preserve">
<style type="text/css">
	.st0{fill:none;stroke:#E26957;stroke-width:2;stroke-linecap:round;stroke-linejoin:round;stroke-miterlimit:10;}
</style>
<path class="st0" d="M18.4,24.6c1.8,1.8,3.5,4.6,7.1,4.6s77.4,0,77.4,0"/>
<line class="st0" x1="43.9" y1="37.2" x2="48.7" y2="37.2"/>
<path class="st0" d="M16.9,29.1c-4.7,0-7.6,8.1,1.6,8.1c2.3,0,9.2,0,19.8,0"/>
<path class="st0" d="M52.1,124.2c0.5-3.1,4.2-5.4,8.3-5.8c0-1.8-0.7-9.7-3.2-27.3c-4.3-31.2,4.8-23.7-0.6-53.8h-2.6"/>
<path class="st0" d="M66.2,58h9.6l27.5-24.6l1.4-10.8c0,0,6.3-4.2,7.3,6.1"/>
<path class="st0" d="M110.6,37.4l-21,25.9c0,0-8.3,11.5-18.5,11.5c0,0-3.3,39.1-2.4,49.1"/>
<line class="st0" x1="59.8" y1="107.8" x2="68.4" y2="107.8"/>
<path class="st0" d="M114.8,29.4v7.4c0,0-6.2,2.2-6.2-4C108.6,28.3,114.8,29.4,114.8,29.4z"/>
<path class="st0" d="M80,53.7c0,0-0.9-11.6,1.2-16.5h17.2"/>
<line class="st0" x1="92.5" y1="43.3" x2="99.7" y2="50.3"/>
<path class="st0" d="M109,52.9"/>
<line class="st0" x1="4" y1="124.8" x2="122.8" y2="124.8"/>
<path class="st0" d="M64.5,29c-2.3-3.4-4.6-8.2-4.6-12.2c0-6.9,4-8.7,8.9-8.7c4.9,0,8.9,1.8,8.9,8.7c0,4.1-2.3,9-4.6,12.4"/>
<path class="st0" d="M64.6,8.4c-0.2-0.5-0.4-1.1-0.4-1.8c0-2.5,2-4.5,4.5-4.5c2.5,0,4.5,2,4.5,4.5c0,0.6-0.1,1.2-0.3,1.7"/>
</svg>
