<?xml version="1.0" encoding="utf-8"?>
<!-- Generator: Adobe Illustrator 26.0.2, SVG Export Plug-In . SVG Version: 6.00 Build 0)  -->
<svg version="1.1" id="Layer_1" xmlns="http://www.w3.org/2000/svg" xmlns:xlink="http://www.w3.org/1999/xlink" x="0px" y="0px"
	 viewBox="0 0 128 128" style="enable-background:new 0 0 128 128;" xml:space="preserve">
<style type="text/css">
	.st0{fill:none;stroke:#E26957;stroke-width:2;stroke-linecap:round;stroke-linejoin:round;stroke-miterlimit:10;}
</style>
<g>
	<path class="st0" d="M4.3,65.8c0-0.4,0-0.8,0-1.3C4.3,31.6,31,4.8,64,4.8s59.7,26.7,59.7,59.7c0,0.6,0,1.2,0,1.9"/>
	<path class="st0" d="M18.1,102.9c-3.4-4.1-6.3-8.7-8.6-13.6"/>
	<path class="st0" d="M118.2,89.7c-2.4,5.1-5.4,9.8-9.1,14"/>
	<path class="st0" d="M74.9,18.5c19,4.5,33.6,20.4,36.1,40.1"/>
	<path class="st0" d="M16.9,59.4c2.2-20.4,17.4-36.8,37-41.1"/>
	<path class="st0" d="M28.8,96.3c-2.1-2.3-3.9-4.8-5.5-7.4"/>
	<path class="st0" d="M104.2,89.6c-1.4,2.2-3,4.3-4.7,6.3"/>
	<path class="st0" d="M27.9,64.6c0-13.6,7.5-25.5,18.7-31.7"/>
	<path class="st0" d="M42.5,93.7c-2.1-1.5-4-3.3-5.7-5.2"/>
	<path class="st0" d="M91.5,88c-1.5,1.8-3.2,3.4-5,4.8"/>
	<path class="st0" d="M81.2,32.8c11.3,6.1,18.9,18.1,18.9,31.8"/>
	<path class="st0" d="M13,64.8c0.6,3.5,9.9,8.4,19.3,6.8l13.8-13.4c1.1-1.1,2.6-1.7,4.1-1.7h28c1.5,0,3,0.6,4.1,1.7l2.6,2.6"/>
	<path class="st0" d="M94.6,71H105c1.5,0,2.9-0.5,4.1-1.4l5.9-4.6"/>
	<path class="st0" d="M49.3,70.8l-9.5,9.2c-1.8,1.8-4.3,2.8-6.9,2.8H10.1c-4.7,0-9.8-9.8,0.6-11.7"/>
	<path class="st0" d="M78.9,70.8l9.5,9.2c1.8,1.8,4.3,2.8,6.9,2.8h22.8c4.7,0,9.8-9.8-0.6-11.7"/>
	<path class="st0" d="M47.5,74.1c0,0,2.9,10.8,2.1,21.8"/>
	<path class="st0" d="M80.9,74.1c0,0-2.9,10.8-2.1,21.8"/>
	<path class="st0" d="M49.4,96.6l-17.1,5.1c-2.8,0.8-5.3,2.5-7,4.8c-2.9,3.8-3.7,10.5,6.9,16.4"/>
	<path class="st0" d="M79,96.6l17.1,5.1c2.8,0.8,5.3,2.5,7,4.8c2.9,3.8,4.6,10-6.1,15.8"/>
	<line class="st0" x1="49.7" y1="96.6" x2="78.4" y2="96.6"/>
	<path class="st0" d="M75.6,38.4c0,7.9-5.3,17.9-11.7,17.9s-11.7-9.9-11.7-17.8S57.4,27,63.9,27S75.6,30.5,75.6,38.4z"/>
	<path class="st0" d="M57.9,27.7c-0.2-0.6-0.3-1.3-0.3-2.1c0-3.7,3-6.8,6.6-6.8c3.7,0,6.6,3,6.6,6.8c0,0.9-0.2,1.8-0.5,2.5"/>
	<line class="st0" x1="6" y1="123.2" x2="121.8" y2="123.2"/>
	<path class="st0" d="M45.9,122.7c0,0-0.7-2.5,8.7-6.7l-17.8-5"/>
	<path class="st0" d="M91.6,111.4l-24.3,6.4c0,0-2.8-9.9-12.8-1.8"/>
	<line class="st0" x1="87.8" y1="122.5" x2="87.8" y2="113"/>
	<line class="st0" x1="88.2" y1="64.2" x2="90.7" y2="66.7"/>
</g>
</svg>
