<?xml version="1.0" encoding="utf-8"?>
<!-- Generator: Adobe Illustrator 26.0.2, SVG Export Plug-In . SVG Version: 6.00 Build 0)  -->
<svg version="1.1" id="Layer_1" xmlns="http://www.w3.org/2000/svg" xmlns:xlink="http://www.w3.org/1999/xlink" x="0px" y="0px"
	 viewBox="0 0 128 128" style="enable-background:new 0 0 128 128;" xml:space="preserve">
<style type="text/css">
	.st0{fill:none;stroke:#E26957;stroke-width:2;stroke-linecap:round;stroke-linejoin:round;stroke-miterlimit:10;}
</style>
<g>
	<path class="st0" d="M7.3,37.4c-5,0-6.6,9,0.1,9h42.8c0,0,3.6,9.7,1.9,23.3C49,94.2,78.6,85.3,89.2,88.6l-2.8,23.1
		c0,0-4,5.2,1.7,7.9"/>
	<path class="st0" d="M22.3,37.2h-4.9c0,0-4.4,0-8.5-4.9"/>
	<line class="st0" x1="30.9" y1="37.2" x2="29.5" y2="37.2"/>
	<line class="st0" x1="109.5" y1="37.2" x2="37.2" y2="37.2"/>
	<path class="st0" d="M119.3,32.5c-3.6,3.2-3.8,4.7-9.8,4.7"/>
	<path class="st0" d="M75.7,71.5c0,0-1.7-14.7,2.5-24.9h41.3c7.6,0,7.9-9.4,1.2-9.4"/>
	<path class="st0" d="M63.8,70.6c0,0,29.3,2.4,35.5,10.1c3.8,4.8-1.7,10.9-4.1,31.5c0,0,9.3,0.8,10.2,6.9"/>
	<path class="st0" d="M50.9,70.3c0,0-23.3,22.5-39.6,32.1c-1.1,0.6-2.2,1.7-1.9,2.9c1.5,6.1,3.2,15.4,12.4,14.2l-2-11.8
		c0,0,20.3-13.9,44.1-20.9"/>
	<line class="st0" x1="2.4" y1="119.9" x2="125.3" y2="119.9"/>
	<path class="st0" d="M59,37.2c-2.5-3.4-4.1-8.7-4.1-13.2c0-7.2,4.2-9.5,9.3-9.5s9.3,2.3,9.3,9.5c0,4.4-1.6,9.7-4,13.1"/>
	<path class="st0" d="M58.8,15.2c-0.1-0.4-0.1-0.8-0.1-1.1c0-3.3,2.5-6,5.5-6c3,0,5.5,2.7,5.5,6c0,0.4,0,0.8-0.1,1.2"/>
	<line class="st0" x1="25" y1="92.9" x2="29.7" y2="101.3"/>
	<line class="st0" x1="88.7" y1="98.6" x2="97.2" y2="98.6"/>
</g>
</svg>
