<?xml version="1.0" encoding="utf-8"?>
<!-- Generator: Adobe Illustrator 26.0.2, SVG Export Plug-In . SVG Version: 6.00 Build 0)  -->
<svg version="1.1" id="Layer_1" xmlns="http://www.w3.org/2000/svg" xmlns:xlink="http://www.w3.org/1999/xlink" x="0px" y="0px"
	 viewBox="0 0 128 128" style="enable-background:new 0 0 128 128;" xml:space="preserve">
<style type="text/css">
	.st0{fill:none;stroke:#E26957;stroke-width:2;stroke-linecap:round;stroke-linejoin:round;stroke-miterlimit:10;}
</style>
<path class="st0" d="M87.8,122.2c0,0-4.6-0.1-4.4-6c0.3-5.8,4.1-17.1,3.8-26.2c-7.7,0-54.1,1.6-29.8-24.6
	c3.2-3.4-26.3,22.2-50.1,38.5c-2.3,1.6-3.3,4.6-2.4,7.3c1.7,5,5.6,10.4,5.6,10.4h6.4l-1.9-11.9c11.9-7.9,43.5-22.4,43.5-22.4"/>
<path class="st0" d="M62.8,71.2c0,0,30.6,3.7,35.4,10.5c4.8,6.8-4.2,32.9-4.2,32.9s8.9,1.5,9.9,7c0,0.2,0,0.3,0,0.4"/>
<path class="st0" d="M77.6,27.1c0,0-4.5,20.1-16.2,35"/>
<path class="st0" d="M113.9,7.5c4.1-4.1,12.5,1.9,7,7.4c-8,8-34.6,34.8-34.6,34.8"/>
<path class="st0" d="M78.5,43l27.2-26.8c0,0,3.2-4.5,3.2-11.1"/>
<path class="st0" d="M90.5,46.4c0,0,10.9,8.9-18.9,25.3"/>
<path class="st0" d="M84,37c0,0-11.4-2-12.7-11.9C68.6,5.2,89.9,7.3,92.1,17.9c0.5,2.7,0,10.9,0,10.9"/>
<path class="st0" d="M80.4,21.5c0,0,4.2,0.9,10.5-5.6"/>
<path class="st0" d="M71,21.5c-1.4,0.5-2.9,0.5-4.2-0.2c-2.9-1.4-3.9-5.5-2.1-9c1.7-3.5,5.5-5.3,8.4-3.8c1.3,0.7,2,1.2,2.5,2.7"/>
<line class="st0" x1="3.7" y1="122.2" x2="123.9" y2="122.2"/>
<line class="st0" x1="20.6" y1="94.5" x2="25.2" y2="102.9"/>
<line class="st0" x1="87.1" y1="100.6" x2="97.5" y2="100.9"/>
<path class="st0" d="M136.7,101.8"/>
</svg>
