<?xml version="1.0" encoding="utf-8"?>
<!-- Generator: Adobe Illustrator 26.0.2, SVG Export Plug-In . SVG Version: 6.00 Build 0)  -->
<svg version="1.1" id="Layer_1" xmlns="http://www.w3.org/2000/svg" xmlns:xlink="http://www.w3.org/1999/xlink" x="0px" y="0px"
	 viewBox="0 0 128 128" style="enable-background:new 0 0 128 128;" xml:space="preserve">
<style type="text/css">
	.st0{fill:none;stroke:#E26957;stroke-width:2;stroke-linecap:round;stroke-linejoin:round;stroke-miterlimit:10;}
</style>
<g>
	<path class="st0" d="M98.4,84.8c3.7,0,6.7-3,6.7-6.7l0,0c0-6-5.6-11.3-9.9-16.5c-2-2.5-3.8-4.9-5.2-6.8c-2.4-3.3-5.8-5.7-9.7-6.7
		c-3.8-1-6.1-1-6.1-1h-20c0,0-2.3,0-6.1,1c-3.9,1-7.4,3.4-9.7,6.7c-1.4,1.9-3.2,4.3-5.2,6.8c-4.3,5.2-9.8,10.4-9.9,16.5l0,0
		c0,3.7,3,6.7,6.7,6.7h29.6c5.1,0,4.7-5.5,4.7-5.5s-0.6,5.5,4.8,5.5H98.4z"/>
	<path class="st0" d="M48.5,61.4l-9.9,12.7H56c0-17.8,16.3-18,16.3,0h17.5l-10.5-13"/>
	<path class="st0" d="M46.6,73.4c0,0-0.2-3.4-1.7-6.1"/>
	<path class="st0" d="M81.3,73.4c0,0,0.2-3.4,1.7-6.1"/>
	<line class="st0" x1="64.2" y1="61.2" x2="64.2" y2="82"/>
	<path class="st0" d="M69.3,94.7H46.6l-23.4,6.9c-10.1,4.2-9.8,24,4.7,23.7c23.5-0.4,74.6,0,74.6,0c9.1-0.6,16.5-18.5,1.6-24
		l-22.7-6.7v-9.8"/>
	<path class="st0" d="M95.7,111.5l-28.4,7.2c-3-8.6-10-4.5-14.2-1.6c-4.2,2.9-7.9,1.6-9.8,7.8"/>
	<line class="st0" x1="32.4" y1="111.5" x2="52.4" y2="116.8"/>
	<line class="st0" x1="36.5" y1="124.7" x2="36.5" y2="113"/>
	<line class="st0" x1="91.4" y1="112.8" x2="91.4" y2="124.9"/>
	<line class="st0" x1="46.9" y1="85" x2="46.9" y2="94.2"/>
	<path class="st0" d="M77.6,25.7c0,9.3-6.2,21.1-13.8,21.1S50,35,50,25.7s6.2-12.6,13.8-12.6S77.6,16.4,77.6,25.7z"/>
	<path class="st0" d="M50.6,25.1c0,0,6.5,7.2,12.3,1.4c5.8-5.8,14.3-2.7,14.3-2.7"/>
	<path class="st0" d="M57.3,14c-0.2-0.8-0.3-1.7-0.3-2.7c0-4.9,3.1-8.8,6.8-8.8s6.8,3.9,6.8,8.8c0,0.9-0.1,1.7-0.3,2.6"/>
	<line class="st0" x1="2.4" y1="125.5" x2="125.6" y2="125.5"/>
</g>
</svg>
